hold_a_tea_cup coordinate motion generated from LLM joint_angles
version=1
nRows=18
nColumns=29
inDegrees=yes
endheader
time	elbow_flexion	pro_sup	rotaxis_auxprfem_r3	deviation	auxprrud_auxdrfem_r3	auxdrfem_auxdrrud_r1	MCP2_lateral	MCP2_flex	PIP_flex	DIP_flex	MCP2M_lateral	MCP2M_flex	MPIP_flex	MDIP_flex	RCP2M_lateral	RCP2M_flex	RPIP_flex	RDIP_flex	LCP2M_lateral	LCP2M_flex	LPIP_flex	LDIP_flex	thumb_abd	thumb_flex	TCP2M_lateral	TCP2M_flex	TCP2M2_flex	flexion
0.666667	0.000000	0.000000	0.000000	4.330127	0.000000	0.000000	0.000000	17.320508	25.980762	34.641016	0.000000	17.320508	25.980762	34.641016	0.000000	77.942286	77.942286	77.942286	0.000000	77.942286	77.942286	77.942286	17.320508	38.971143	0.000000	8.660254	0.000000	8.660254
0.673333	0.000000	0.000000	0.000000	4.276821	0.000000	0.000000	0.000000	17.107285	25.660928	34.214570	0.000000	17.107285	25.660928	34.214570	0.000000	76.982783	76.982783	76.982783	0.000000	76.982783	76.982783	76.982783	17.107285	38.491392	0.000000	8.553643	0.000000	8.553643
0.680000	0.000000	0.000000	0.000000	4.221640	0.000000	0.000000	0.000000	16.886559	25.329838	33.773117	0.000000	16.886559	25.329838	33.773117	0.000000	75.989513	75.989513	75.989513	0.000000	75.989513	75.989513	75.989513	16.886559	37.994757	0.000000	8.443279	0.000000	8.443279
0.686667	0.000000	0.000000	0.000000	4.164606	0.000000	0.000000	0.000000	16.658425	24.987637	33.316850	0.000000	16.658425	24.987637	33.316850	0.000000	74.962912	74.962912	74.962912	0.000000	74.962912	74.962912	74.962912	16.658425	37.481456	0.000000	8.329212	0.000000	8.329212
0.693333	0.000000	0.000000	0.000000	4.105746	0.000000	0.000000	0.000000	16.422984	24.634476	32.845968	0.000000	16.422984	24.634476	32.845968	0.000000	73.903429	73.903429	73.903429	0.000000	73.903429	73.903429	73.903429	16.422984	36.951714	0.000000	8.211492	0.000000	8.211492
0.700000	0.000000	0.000000	0.000000	4.045085	0.000000	0.000000	0.000000	16.180340	24.270510	32.360680	0.000000	16.180340	24.270510	32.360680	0.000000	72.811529	72.811529	72.811529	0.000000	72.811529	72.811529	72.811529	16.180340	36.405765	0.000000	8.090170	0.000000	8.090170
0.706667	0.000000	0.000000	0.000000	3.982650	0.000000	0.000000	0.000000	15.930598	23.895898	31.861197	0.000000	15.930598	23.895898	31.861197	0.000000	71.687693	71.687693	71.687693	0.000000	71.687693	71.687693	71.687693	15.930598	35.843846	0.000000	7.965299	0.000000	7.965299
0.713333	0.000000	0.000000	0.000000	3.918467	0.000000	0.000000	0.000000	15.673869	23.510804	31.347738	0.000000	15.673869	23.510804	31.347738	0.000000	70.532411	70.532411	70.532411	0.000000	70.532411	70.532411	70.532411	15.673869	35.266206	0.000000	7.836935	0.000000	7.836935
0.720000	0.000000	0.000000	0.000000	3.852566	0.000000	0.000000	0.000000	15.410265	23.115397	30.820530	0.000000	15.410265	23.115397	30.820530	0.000000	69.346192	69.346192	69.346192	0.000000	69.346192	69.346192	69.346192	15.410265	34.673096	0.000000	7.705132	0.000000	7.705132
0.726667	0.000000	0.000000	0.000000	3.784975	0.000000	0.000000	0.000000	15.139901	22.709852	30.279802	0.000000	15.139901	22.709852	30.279802	0.000000	68.129555	68.129555	68.129555	0.000000	68.129555	68.129555	68.129555	15.139901	34.064778	0.000000	7.569951	0.000000	7.569951
0.733333	0.000000	0.000000	0.000000	3.715724	0.000000	0.000000	0.000000	14.862897	22.294345	29.725793	0.000000	14.862897	22.294345	29.725793	0.000000	66.883034	66.883034	66.883034	0.000000	66.883034	66.883034	66.883034	14.862897	33.441517	0.000000	7.431448	0.000000	7.431448
0.740000	0.000000	0.000000	0.000000	3.644843	0.000000	0.000000	0.000000	14.579373	21.869059	29.158745	0.000000	14.579373	21.869059	29.158745	0.000000	65.607176	65.607176	65.607176	0.000000	65.607176	65.607176	65.607176	14.579373	32.803588	0.000000	7.289686	0.000000	7.289686
0.746667	0.000000	0.000000	0.000000	3.572363	0.000000	0.000000	0.000000	14.289454	21.434180	28.578907	0.000000	14.289454	21.434180	28.578907	0.000000	64.302541	64.302541	64.302541	0.000000	64.302541	64.302541	64.302541	14.289454	32.151271	0.000000	7.144727	0.000000	7.144727
0.753333	0.000000	0.000000	0.000000	3.498317	0.000000	0.000000	0.000000	13.993267	20.989900	27.986534	0.000000	13.993267	20.989900	27.986534	0.000000	62.969701	62.969701	62.969701	0.000000	62.969701	62.969701	62.969701	13.993267	31.484850	0.000000	6.996633	0.000000	6.996633
0.760000	0.000000	0.000000	0.000000	3.422736	0.000000	0.000000	0.000000	13.690942	20.536413	27.381884	0.000000	13.690942	20.536413	27.381884	0.000000	61.609240	61.609240	61.609240	0.000000	61.609240	61.609240	61.609240	13.690942	30.804620	0.000000	6.845471	0.000000	6.845471
0.766667	0.000000	0.000000	0.000000	3.345653	0.000000	0.000000	0.000000	13.382612	20.073918	26.765224	0.000000	13.382612	20.073918	26.765224	0.000000	60.221755	60.221755	60.221755	0.000000	60.221755	60.221755	60.221755	13.382612	30.110877	0.000000	6.691306	0.000000	6.691306
0.773333	0.000000	0.000000	0.000000	3.267103	0.000000	0.000000	0.000000	13.068412	19.602618	26.136824	0.000000	13.068412	19.602618	26.136824	0.000000	58.807854	58.807854	58.807854	0.000000	58.807854	58.807854	58.807854	13.068412	29.403927	0.000000	6.534206	0.000000	6.534206
0.780000	0.000000	0.000000	0.000000	3.187120	0.000000	0.000000	0.000000	12.748480	19.122720	25.496960	0.000000	12.748480	19.122720	25.496960	0.000000	57.368159	57.368159	57.368159	0.000000	57.368159	57.368159	57.368159	12.748480	28.684080	0.000000	6.374240	0.000000	6.374240
